<svg version="1" xmlns="http://www.w3.org/2000/svg" width="682.667" height="682.667" viewBox="0 0 512.000000 512.000000"><path d="M38 .7C18.3 3.7 4 17.4 1 36-.4 45-.4 467 1 476c2.5 15.4 13.5 28.4 28.8 33.8 4.3 1.5 22 1.7 221.7 2 148.7.2 219.2-.1 224-.8 9.2-1.4 16.8-5.2 23.5-12 6.6-6.6 10.6-14.2 12-23 1.4-9 1.4-431 0-440-1.4-8.8-5.4-16.4-12-23-6.6-6.6-14.2-10.6-23-12C469.9.1 44.2-.3 38 .7zm442.3 19.7c6.2 3 10.6 7.9 12.9 14.4 1.9 5.5 1.9 436.9 0 442.4-2.3 6.5-6.7 11.4-12.9 14.4l-5.8 2.9-216.9.3c-245.1.3-224.1.9-232.7-7.6-8.6-8.6-7.9 12.2-7.9-231.2 0-241.8-.6-222.3 7.3-230.7 2.9-3 6-5.1 9.7-6.3 5.3-1.9 11.6-1.9 223-1.7l217.5.2 5.8 2.9z"/><path d="M86.2 61.7c-1.8.9-4.5 3.2-6 5.1l-2.7 3.5-.3 98.1c-.2 67 0 99.3.8 101.8 1.3 4.4 6.6 9.3 11.7 10.7 5.3 1.5 327.3 1.5 332.6 0 5.1-1.4 10.4-6.3 11.7-10.7.8-2.5 1-34.8.8-101.8l-.3-98.1-2.7-3.5c-5.6-7.4 9.3-6.8-176-6.8-151.9 0-166.6.2-169.6 1.7zM418 170.3v93.4l-12.7.6c-7.1.4-80 .7-162 .7H94V77h324v93.3z"/><path d="M117.8 100.8c-5.6 5.6-6.8 7.4-6.8 10.1 0 4.5 3.8 8.1 8.6 8.1 3.2 0 4.6-.8 10.1-6.3s6.3-6.9 6.3-10.1c0-4.8-3.6-8.6-8.1-8.6-2.7 0-4.5 1.2-10.1 6.8zM164.4 96.9c-4.6 3.4-49.4 48.5-51.8 52.1-3.9 5.9 0 13 7.1 13 3.6 0 5-1.3 31.5-27.8 26-26 27.8-28 27.8-31.4 0-4.4-4-8.8-8-8.8-1.5 0-4.5 1.3-6.6 2.9zM252.4 95c-2.3.9-17 18.9-27.1 33-13.1 18.4-23.6 37.3-26.9 48.5-7.8 26.4 9.4 57 38.2 67.7 5 1.9 7.9 2.2 19.4 2.2 11.5 0 14.4-.3 19.4-2.2 23.7-8.8 39.7-30.5 39.9-54.1.1-9.2-1.9-16.6-7.9-28.4-8.2-16.2-19.4-32.9-36.2-54-10.5-13.2-13.2-15-18.8-12.7zm11.8 31.7c11.2 14.6 23.5 33.6 28.7 44.3 4.4 9.1 4.6 9.8 4.6 18.5 0 8.2-.3 9.7-3.4 16l-3.3 7-1.3-3.5c-2.4-6.7-7.5-15.9-15.5-27.8-10.1-15.2-13.8-19.2-17.6-19.2-4.4 0-6.5 2-15.2 14.3-9.1 13-15.1 23.3-18 30.9l-2 5.3-3.4-7c-3-6.3-3.3-7.9-3.3-16 0-8.7.2-9.4 4.6-18.5 2.5-5.2 8.3-15.1 12.9-22 8.9-13.4 22.8-32 24-32 .4 0 4.1 4.4 8.2 9.7zm-1.6 67.6c7.1 10.7 10.8 19.2 10 22.9-.7 3.7-4.8 9.3-7.9 10.9-9.6 5.2-21.7.4-24.8-9.9-1.2-4.1-1.1-4.7 2-11 5.4-10.9 13.3-22.2 14.8-21 .7.5 3.3 4.2 5.9 8.1zM247.5 324.6c-35.1 5.7-59.5 33.5-59.5 67.9 0 30.4 19.5 56.6 49 65.6 10.6 3.3 27.4 3.3 38 0 29.5-9 49-35.2 49-65.6 0-36.8-28.5-66.4-65.5-68-4.4-.2-9.3-.1-11 .1zm21.8 19.1c1 .5 3.8 3.4 6.2 6.4 15.9 19.3 18.7 49.6 6.9 74.4-3.9 8.2-10.9 16.3-15.2 17.5-5.2 1.4-17.8 1.2-23.7-.4-25-6.7-41.7-31.8-37.6-56.7 3.2-19.6 17.9-36 37.4-41.4 5.8-1.6 23-1.5 26 .2zM121.5 334.2c-1.1.6-3 2-4.3 3.2-3 2.7-13.2 21.6-14.3 26.4-1.6 7.2 2.9 16 9.8 18.8 4.4 1.9 26.2 1.9 30.6 0 6.9-2.8 11.4-11.6 9.8-18.8-1-4.3-10.4-22.3-13.5-25.6-1.1-1.3-3.3-3-4.8-3.8-3.2-1.7-10.5-1.8-13.3-.2zm10.8 25.3l3.7 7.5h-8c-4.4 0-8-.2-8-.5 0-1 7.5-14.5 8-14.5.3 0 2.2 3.4 4.3 7.5zM367.1 335.1c-1.9 1.1-4.2 3-5.2 4.2-2.6 3.2-3.9 9.6-3 13.9.8 3.6 8.5 18.6 12.3 24.1 2.4 3.4 8.7 6.7 12.8 6.7 4.1 0 10.4-3.3 12.8-6.7 3.8-5.5 11.5-20.5 12.3-24.1.9-4.3-.4-10.7-3-13.9-4.4-5.4-7.6-6.3-22.1-6.3-11.9 0-13.9.3-16.9 2.1zm21.2 21.4c-1.9 3.6-3.8 6.5-4.4 6.5-.8 0-6.9-11-6.9-12.5 0-.3 3.3-.5 7.4-.5h7.4l-3.5 6.5zM101.6 403c-13.1 5.1-19.4 19.8-14.3 33.2 2.2 5.8 9.8 12.9 15.5 14.6 5.3 1.6 45.1 1.6 50.4 0 5.7-1.7 13.3-8.8 15.5-14.6 2.1-5.7 2.2-14.3 0-19.3-2.5-6-8.3-11.6-14.3-13.9-4.9-1.8-7.7-2-26.7-2-18.5.1-21.8.3-26.1 2zm47.4 16.5c5 2.6 5.7 9.4 1.4 13.2-2.4 2.2-3.2 2.3-22.4 2.3s-20-.1-22.4-2.3c-4.2-3.7-3.6-10.6 1.2-13.1 4-2.2 38-2.3 42.2-.1zM357.6 403c-13.1 5.1-19.4 19.8-14.3 33.2 2.2 5.8 9.8 12.9 15.5 14.6 5.3 1.6 45.1 1.6 50.4 0 5.7-1.7 13.3-8.8 15.5-14.6 2.1-5.7 2.2-14.3 0-19.3-2.5-6-8.3-11.6-14.3-13.9-4.9-1.8-7.7-2-26.7-2-18.5.1-21.8.3-26.1 2zm48.9 18.5c3.3 3.2 3.3 7.4-.1 10.6-2.5 2.4-2.8 2.4-22.4 2.4-19.6 0-19.9 0-22.4-2.4-3.4-3.2-3.4-7.4-.1-10.6 2.4-2.5 2.5-2.5 22.5-2.5s20.1 0 22.5 2.5z"/></svg>